<svg width="16" height="16" viewBox="0 0 16 16" fill="none" xmlns="http://www.w3.org/2000/svg">
<path d="M12.9994 6C13.6086 6.00002 14.2033 5.8146 14.7045 5.4684C15.2057 5.1222 15.5897 4.63162 15.8053 4.06191C16.0209 3.49219 16.058 2.87034 15.9116 2.27904C15.7652 1.68774 15.4423 1.15501 14.9858 0.751702C14.5293 0.348394 13.9608 0.0936156 13.3559 0.0212481C12.7511 -0.0511194 12.1386 0.0623529 11.5998 0.346575C11.061 0.630798 10.6215 1.0723 10.3397 1.61238C10.058 2.15245 9.94731 2.7655 10.0224 3.37L5.08244 5.84C4.65867 5.43136 4.12404 5.15642 3.54513 5.04945C2.96623 4.94247 2.36865 5.00819 1.82683 5.2384C1.285 5.46862 0.822889 5.85317 0.498049 6.34414C0.173208 6.83511 0 7.4108 0 7.9995C0 8.58821 0.173208 9.1639 0.498049 9.65487C0.822889 10.1458 1.285 10.5304 1.82683 10.7606C2.36865 10.9908 2.96623 11.0565 3.54513 10.9496C4.12404 10.8426 4.65867 10.5677 5.08244 10.159L10.0224 12.629C9.93494 13.3312 10.0985 14.0418 10.4842 14.6351C10.8699 15.2284 11.453 15.6663 12.1303 15.8713C12.8076 16.0763 13.5356 16.0353 14.1856 15.7555C14.8356 15.4757 15.3658 14.9751 15.6824 14.3422C15.999 13.7093 16.0817 12.9849 15.9159 12.2969C15.75 11.6089 15.3463 11.0017 14.7761 10.5826C14.2059 10.1635 13.5059 9.9595 12.7998 10.0066C12.0937 10.0537 11.427 10.3489 10.9174 10.84L5.97744 8.37C6.00771 8.12426 6.00771 7.87574 5.97744 7.63L10.9174 5.16C11.4554 5.68 12.1894 6 12.9994 6Z" fill="black"/>
</svg>
